<?xml version="1.0" encoding="UTF-8"?>
<svg xmlns="http://www.w3.org/2000/svg" version="1.1" xmlns:xlink="http://www.w3.org/1999/xlink" viewBox="0 0 150 50">
  <!-- Generator: Adobe Illustrator 30.2.1, SVG Export Plug-In . SVG Version: 2.1.1 Build 1)  -->
  <defs>
    <style>
      .st0 {
        fill: url(#linear-gradient2);
      }

      .st1 {
        fill: url(#linear-gradient10);
      }

      .st2 {
        fill: url(#linear-gradient1);
      }

      .st3 {
        fill: url(#linear-gradient9);
      }

      .st4 {
        fill: url(#linear-gradient11);
      }

      .st5 {
        isolation: isolate;
      }

      .st6 {
        fill: url(#linear-gradient12);
      }

      .st7 {
        fill: url(#linear-gradient4);
      }

      .st8 {
        fill: url(#linear-gradient8);
      }

      .st8, .st9 {
        mix-blend-mode: multiply;
      }

      .st10 {
        fill: url(#linear-gradient5);
      }

      .st9 {
        fill: url(#linear-gradient7);
      }

      .st11 {
        fill: #22892c;
      }

      .st12 {
        fill: url(#linear-gradient3);
      }

      .st13 {
        fill: url(#linear-gradient6);
      }

      .st14 {
        fill: url(#linear-gradient);
      }
    </style>
    <linearGradient id="linear-gradient" x1="144.98" y1="6.12" x2="128.48" y2="26.18" gradientUnits="userSpaceOnUse">
      <stop offset="0" stop-color="#6eff3f"/>
      <stop offset="1" stop-color="#007f08"/>
    </linearGradient>
    <linearGradient id="linear-gradient1" x1="131.68" y1="30.8" x2="126.77" y2="38.4" gradientUnits="userSpaceOnUse">
      <stop offset="0" stop-color="#fff"/>
      <stop offset="1" stop-color="#fff" stop-opacity="0"/>
    </linearGradient>
    <linearGradient id="linear-gradient2" x1="142.03" y1="9.69" x2="133.35" y2="20.27" xlink:href="#linear-gradient1"/>
    <linearGradient id="linear-gradient3" x1="134.9" y1="16.24" x2="123.38" y2="33.26" gradientUnits="userSpaceOnUse">
      <stop offset="0" stop-color="#55df00"/>
      <stop offset="1" stop-color="#009f0e"/>
    </linearGradient>
    <linearGradient id="linear-gradient4" x1="122.52" y1="36.17" x2="132.59" y2="18.72" xlink:href="#linear-gradient3"/>
    <linearGradient id="linear-gradient5" x1="117.79" y1="31.65" x2="128.87" y2="31.65" gradientUnits="userSpaceOnUse">
      <stop offset="0" stop-color="#00bef5"/>
      <stop offset="1" stop-color="#007dc6"/>
    </linearGradient>
    <linearGradient id="linear-gradient6" x1="117.78" y1="18.35" y2="18.35" xlink:href="#linear-gradient5"/>
    <linearGradient id="linear-gradient7" x1="123.19" y1="26.64" x2="123.68" y2="38.03" gradientUnits="userSpaceOnUse">
      <stop offset="0" stop-color="#003cb1"/>
      <stop offset="1" stop-color="#fff" stop-opacity="0"/>
    </linearGradient>
    <linearGradient id="linear-gradient8" x1="122.48" y1="23.69" x2="124.86" y2="13.61" xlink:href="#linear-gradient7"/>
    <linearGradient id="linear-gradient9" x1="125.81" y1="19.08" x2="126.87" y2="11.86" xlink:href="#linear-gradient5"/>
    <linearGradient id="linear-gradient10" x1="127.17" y1="34.62" x2="124.64" y2="27.91" xlink:href="#linear-gradient5"/>
    <linearGradient id="linear-gradient11" x1="38.06" y1="-29.51" x2="38.45" y2="-33.02" gradientTransform="translate(70.83 66.78) scale(1.25 1.43)" xlink:href="#linear-gradient5"/>
    <linearGradient id="linear-gradient12" x1="38.39" y1="83.78" x2="37.5" y2="86.78" gradientTransform="translate(70.84 147.97) scale(1.25 -1.43)" xlink:href="#linear-gradient5"/>
  </defs>
  <g class="st5">
    <g id="Layer_1">
      <g>
        <g>
          <path class="st11" d="M10,31.55c-.71,0-1.22-.18-1.53-.55s-.42-.9-.3-1.59l1.66-10.5c.1-.6.33-1.06.69-1.37.36-.31.84-.46,1.45-.46h7.32c.5,0,.89.1,1.16.31.27.21.4.51.4.9,0,.55-.16.98-.48,1.29-.32.31-.74.46-1.27.46h-5.81l-.37,2.55h4.99c.5,0,.89.1,1.16.31.27.21.4.51.4.9,0,.55-.16.98-.48,1.29-.32.31-.74.46-1.27.46h-5.27l-.5,3.05h5.44c.5,0,.89.1,1.16.31.27.21.4.51.4.9,0,.55-.16.98-.48,1.29-.32.31-.74.46-1.27.46h-7.19Z"/>
          <path class="st11" d="M22.62,31.75c-.58,0-1-.18-1.26-.54-.27-.36-.35-.87-.25-1.53l1.15-7.17c.09-.59.31-1.03.66-1.33.35-.29.82-.44,1.39-.44s1.02.18,1.27.54c.26.36.35.87.26,1.53l-.15.95-.11-.84c.42-.79.95-1.36,1.61-1.71.65-.35,1.32-.52,2-.52.79,0,1.44.2,1.95.6s.88,1,1.11,1.79l-.3-.19c.4-.73.93-1.29,1.58-1.65s1.38-.55,2.2-.55c.76,0,1.41.16,1.94.49.53.32.91.82,1.13,1.49.22.67.25,1.54.08,2.6l-.76,4.71c-.07.58-.28,1.02-.64,1.32-.35.3-.82.45-1.42.45s-1.07-.18-1.34-.54c-.27-.36-.36-.87-.26-1.53l.67-4.36c.1-.58.06-1.02-.11-1.32s-.48-.45-.91-.45c-.53,0-.97.21-1.32.62-.35.41-.58.99-.71,1.74l-.65,4.08c-.07.58-.29,1.02-.65,1.32-.36.3-.83.45-1.43.45s-1.04-.18-1.32-.54c-.27-.36-.36-.87-.26-1.53l.67-4.36c.1-.58.06-1.02-.11-1.32s-.48-.45-.91-.45c-.53,0-.98.21-1.33.62-.35.41-.59.99-.7,1.74l-.65,4.08c-.09.59-.31,1.03-.67,1.33s-.86.44-1.49.44Z"/>
          <path class="st11" d="M41.3,35.63c-.58,0-1-.19-1.27-.57s-.35-.91-.24-1.59l1.71-10.89c.1-.62.33-1.08.68-1.39.35-.31.83-.46,1.44-.46s1.02.19,1.27.57.33.92.22,1.61l-.13.73.02-1.02c.4-.62.92-1.1,1.54-1.44.63-.34,1.31-.51,2.04-.51.79,0,1.48.19,2.07.56.59.37,1.05.91,1.38,1.6.33.69.5,1.51.5,2.46,0,1.24-.22,2.35-.67,3.33s-1.07,1.75-1.88,2.31c-.81.56-1.75.84-2.83.84-.76,0-1.44-.17-2.03-.52-.59-.34-1.01-.85-1.25-1.51l.22.02-.65,4.04c-.1.62-.32,1.08-.67,1.37s-.84.44-1.47.44ZM46.35,29.05c.52,0,.96-.15,1.32-.45.36-.3.64-.72.83-1.26.19-.54.29-1.15.29-1.83s-.15-1.17-.46-1.53c-.31-.36-.74-.54-1.29-.54-.5,0-.94.15-1.3.46-.36.31-.64.73-.84,1.25-.2.53-.3,1.13-.3,1.83s.16,1.17.48,1.53c.32.36.74.54,1.27.54Z"/>
          <path class="st11" d="M55.3,31.75c-.59,0-1.02-.18-1.3-.54-.27-.36-.36-.87-.26-1.53l1.12-7.17c.1-.59.33-1.03.68-1.33.35-.29.82-.44,1.39-.44s1.02.18,1.29.54c.27.36.34.87.23,1.53l-.13.73h-.17c.17-.58.43-1.07.78-1.49.35-.42.76-.75,1.24-.98s1-.36,1.57-.36c.3-.01.54.02.72.1.18.08.31.21.4.39.09.18.13.41.13.7,0,.45-.06.81-.19,1.09-.13.28-.33.5-.59.65-.27.15-.61.24-1.03.27l-.78.09c-.52.04-.94.15-1.25.33-.32.18-.56.44-.72.78-.17.34-.29.77-.38,1.28l-.56,3.59c-.1.59-.33,1.03-.69,1.33s-.86.44-1.49.44Z"/>
          <path class="st11" d="M68.47,31.79c-1.12,0-2.11-.22-2.97-.65-.86-.43-1.52-1.02-1.99-1.77-.47-.75-.69-1.59-.68-2.53.01-.91.17-1.74.48-2.51s.72-1.42,1.26-1.97c.54-.55,1.17-.97,1.9-1.26.73-.3,1.52-.43,2.39-.4,1.24.03,2.21.3,2.93.8.71.5,1.21,1.14,1.48,1.9.27.76.36,1.56.26,2.4-.03.24-.11.44-.25.58-.14.14-.29.25-.46.32-.17.07-.35.12-.52.15-.68.07-1.38.13-2.12.17s-1.48.06-2.25.05c-.76,0-1.53-.05-2.29-.12l.19-1.84c.58.03,1.16.06,1.75.1.59.04,1.17.05,1.74.03.57-.01,1.13-.07,1.67-.17l-.35.26c.09-.6,0-1.1-.28-1.5-.27-.4-.76-.62-1.47-.66-.43-.01-.81.06-1.14.24-.33.17-.6.41-.82.7-.22.29-.37.6-.45.92l-.22,1.14c-.13.58-.1,1.08.08,1.5s.49.75.93.98c.44.23.97.35,1.59.35.4,0,.81-.05,1.22-.15.41-.1.77-.23,1.09-.39.36-.19.66-.24.91-.16.24.08.44.23.57.44s.21.47.21.76-.08.57-.24.83c-.16.27-.4.49-.73.66-.5.26-1.06.45-1.67.58-.61.13-1.19.19-1.74.19Z"/>
          <path class="st11" d="M83.03,31.79c-1.43,0-2.69-.27-3.8-.8-1.11-.53-1.99-1.32-2.63-2.35-.65-1.04-.97-2.3-.97-3.8,0-1.14.2-2.19.58-3.16.39-.97.96-1.82,1.72-2.54.76-.72,1.68-1.28,2.79-1.69,1.1-.4,2.37-.6,3.81-.6.75,0,1.48.08,2.18.23.71.15,1.32.36,1.84.62.42.19.71.45.86.78.16.33.21.67.15,1.03s-.19.67-.4.95c-.21.28-.48.47-.8.56-.32.09-.69.03-1.09-.18-.46-.27-.94-.46-1.45-.55-.5-.09-1-.14-1.49-.14-.76,0-1.44.12-2.03.37-.59.25-1.08.58-1.48,1-.4.42-.7.91-.91,1.46s-.31,1.12-.31,1.73c0,.89.16,1.62.49,2.19.32.57.78.99,1.38,1.26.6.27,1.31.42,2.13.43.27,0,.53-.02.76-.05.23-.04.45-.09.66-.15.21-.07.41-.13.6-.21.19-.07.39-.14.59-.22l-.88,1.43c.2-.91.35-1.63.43-2.18.09-.55.14-.91.15-1.08-.16,0-.37,0-.63-.01-.26,0-.58,0-.95.01-.49,0-.87-.1-1.14-.31s-.41-.49-.41-.83c0-.5.15-.89.46-1.16.31-.27.73-.4,1.26-.4h2.42c.55,0,.99.05,1.32.15.33.1.58.25.73.43.16.19.25.41.29.68s.03.56-.03.9l-.6,3.91c-.07.43-.22.79-.44,1.08-.22.29-.55.5-.98.65-.43.13-.88.24-1.35.32-.47.09-.94.15-1.42.19-.48.04-.94.06-1.4.06Z"/>
          <path class="st11" d="M96.42,31.79c-1.14,0-2.11-.21-2.92-.62s-1.42-.99-1.85-1.73c-.42-.74-.64-1.61-.64-2.6s.17-1.9.52-2.67c.35-.77.81-1.41,1.4-1.93s1.26-.91,2-1.17c.74-.26,1.52-.39,2.32-.39,1.14,0,2.11.21,2.92.62.81.41,1.42.99,1.85,1.73s.64,1.61.64,2.6-.17,1.9-.52,2.67c-.35.77-.82,1.42-1.42,1.93-.6.52-1.27.91-2.01,1.17-.74.26-1.51.39-2.3.39ZM96.51,29.05c.5,0,.94-.15,1.3-.45.36-.3.64-.72.83-1.26s.29-1.15.29-1.83c0-.45-.07-.82-.22-1.12-.14-.3-.34-.54-.59-.7s-.56-.25-.94-.25c-.5,0-.94.15-1.3.45s-.64.72-.83,1.25-.29,1.14-.29,1.84c0,.43.07.81.21,1.12.14.32.34.55.6.71s.58.24.94.24Z"/>
          <path class="st11" d="M109.77,30.54c-.06.3-.19.54-.41.71s-.47.3-.77.38c-.29.08-.59.12-.9.12s-.57-.01-.8-.04c-.27-.03-.55-.1-.84-.22-.29-.12-.56-.28-.81-.51-.25-.22-.47-.51-.65-.88-.18-.36-.29-.8-.35-1.32s-.02-1.12.1-1.81c.14-.86.27-1.64.37-2.32.1-.68.2-1.34.3-1.95s.2-1.27.3-1.94.22-1.45.37-2.31c.1-.59.33-1.03.68-1.32.35-.29.82-.38,1.42-.28.59.09,1.01.32,1.27.7.26.38.35.88.26,1.48-.14.85-.27,1.62-.38,2.3-.11.68-.21,1.35-.31,1.99s-.21,1.3-.31,1.99c-.11.68-.23,1.45-.36,2.3-.03.13-.04.29-.03.46,0,.18.04.34.09.47.05.14.14.21.27.23.42.04.75.15.98.31.24.17.4.37.47.62s.09.53.03.84Z"/>
        </g>
        <g>
          <g>
            <path class="st14" d="M128.9,11.14c-1.11,0-2.14.05-3.1.15-.86.09-1.67.23-2.42.41-.96.23-1.83.53-2.61.92l2.35,1.8.06.05c.66-.32,1.37-.58,2.11-.77,1.11-.29,2.32-.44,3.61-.44,7.14,0,11.75,4.61,11.75,11.75,0,.94-.08,1.84-.24,2.7-1.03,5.58-5.32,9.05-11.51,9.05-1.27,0-2.46-.15-3.56-.43-.79-.2-1.54-.47-2.23-.81-.18-.09-.36-.18-.53-.27-.37-.21-.72-.43-1.06-.68l-1.18,2.2h0s-.17.33-.17.33l.14.08c.64.35,1.34.64,2.1.88.31.1.62.18.95.26h0c.74.18,1.54.31,2.4.41.97.11,2.01.16,3.13.16,9.17,0,13.26-3.44,13.8-11.83.04-.65.06-1.33.06-2.03,0-9.87-3.99-13.86-13.86-13.86Z"/>
            <g>
              <path class="st2" d="M128.9,36.75c-1.27,0-2.46-.15-3.56-.43-.79-.2-1.54-.47-2.23-.81-.18-.09-.36-.18-.53-.27-.37-.21-.72-.43-1.06-.68l-.38.71c.3.22.62.42.94.6.17.1.35.19.53.27.69.34,1.44.61,2.23.81,1.1.28,2.29.43,3.56.43,4.26,0,7.62-1.64,9.64-4.49-2.05,2.45-5.21,3.85-9.15,3.85Z"/>
              <path class="st0" d="M128.9,11.14c-1.11,0-2.14.05-3.1.15-.86.09-1.67.23-2.42.41-.96.23-1.83.53-2.61.92l.35.27c.55-.21,1.13-.4,1.76-.55.75-.18,1.56-.32,2.42-.41.96-.1,2-.15,3.1-.15,9.87,0,13.86,3.99,13.86,13.86,0,.71-.02,1.39-.06,2.03-.2,3.14-.9,5.59-2.18,7.42,1.59-1.89,2.45-4.54,2.68-8.06.04-.65.06-1.33.06-2.03,0-9.87-3.99-13.86-13.86-13.86Z"/>
            </g>
            <path class="st12" d="M128.9,15.52c-1.37.03-2.69.35-3.89.91-1.35.63-2.53,1.56-3.46,2.71l1.02,1.26,1.04,1.29c.52-.82,1.23-1.52,2.06-2.03.95-.58,2.05-.92,3.23-.92,3.41,0,6.27,2.86,6.27,6.26,0,1-.24,1.94-.67,2.79-1.04,2.05-3.18,3.48-5.59,3.48-2.28,0-4.31-1.28-5.4-3.15l-1.18,1.11-1.17,1.1c1.73,2.45,4.6,4.09,7.76,4.15,4.13.08,7.63-2.61,8.93-6.3.35-1,.54-2.07.54-3.18,0-5.21-4.22-9.57-9.47-9.47Z"/>
            <path class="st7" d="M128.9,17.12c-1.14.02-2.24.29-3.23.76-1.23.58-2.3,1.45-3.1,2.53l1.04,1.29c.52-.82,1.23-1.52,2.06-2.03.95-.58,2.05-.92,3.23-.92,3.41,0,6.27,2.86,6.27,6.26,0,1-.24,1.94-.67,2.79-1.04,2.05-3.18,3.48-5.59,3.48-2.28,0-4.31-1.28-5.4-3.15l-1.18,1.11c1.42,2.15,3.88,3.6,6.59,3.65,3.44.07,6.35-2.17,7.43-5.24.29-.83.45-1.72.45-2.64,0-4.33-3.51-7.96-7.88-7.88Z"/>
            <path class="st10" d="M120.32,37.16c.64.35,1.34.64,2.1.88.31.1.62.18.95.26-.02-.13-.04-.27-.06-.4-.01-.06-.02-.13-.03-.19-.02-.13-.04-.27-.05-.4-.02-.18-.04-.35-.05-.53-.01-.16-.03-.32-.04-.48,0-.14-.02-.28-.02-.41,0-.11,0-.21,0-.32,0-.02,0-.05,0-.07,0-.21,0-.42,0-.63,0-.07,0-.14,0-.21,0-.13,0-.25.02-.38,0-.06,0-.11.01-.17,0-.1.02-.2.02-.29.02-.22.04-.43.07-.63.01-.08.02-.16.04-.23.02-.13.04-.26.07-.38,0-.04.01-.07.02-.11.01-.07.03-.15.04-.22.02-.09.04-.18.06-.27.02-.09.04-.18.07-.27.02-.08.04-.16.06-.24.04-.15.08-.29.13-.43.04-.11.07-.23.11-.34,0-.01,0-.02.01-.03.04-.12.08-.24.13-.35.01-.03.02-.06.03-.09.04-.1.08-.19.11-.29.09-.21.18-.41.27-.6.03-.07.07-.13.1-.2.17-.34.35-.66.53-.95.04-.06.07-.12.11-.17.4-.64.83-1.16,1.22-1.59.06-.06.11-.12.17-.18.04-.05.09-.09.13-.14l.1-.1c.65-.64,2.07-.97,2.12-1-4.33,1.58-8.02,4.28-9.77,7.02-.48.74-.88,1.49-1.21,2.21,0,0,0,0,0,0-.19.4-.1.88.2,1.2.29.3.59.59.92.85.36.29.75.55,1.17.79l.14.08Z"/>
            <path class="st13" d="M128.87,25c-4.33-1.58-8.02-4.28-9.77-7.02-.48-.74-.88-1.48-1.21-2.21,0,0,0,0,0,0-.18-.39-.11-.86.18-1.17.64-.69,1.39-1.27,2.26-1.74.14-.08.29-.16.44-.23.78-.38,1.65-.69,2.61-.92-.06.34-.1.67-.14.99-.07.6-.11,1.18-.12,1.73,0,.03,0,.05,0,.08-.1,7.27,5.61,10.41,5.76,10.51Z"/>
            <path class="st9" d="M120.32,37.16c.64.35,1.34.64,2.1.88.31.1.62.18.95.26-.02-.13-.04-.27-.06-.4-.01-.06-.02-.13-.03-.19-.02-.13-.04-.27-.05-.4-.02-.18-.04-.35-.05-.53-.01-.16-.03-.32-.04-.48,0-.14-.02-.28-.02-.41,0-.11,0-.21,0-.32,0-.02,0-.05,0-.07,0-.21,0-.42,0-.63,0-.07,0-.14,0-.21,0-.13,0-.25.02-.38,0-.06,0-.11.01-.17,0-.1.02-.2.02-.29.02-.22.04-.43.07-.63.01-.08.02-.16.04-.23.02-.13.04-.26.07-.38,0-.04.01-.07.02-.11.01-.07.03-.15.04-.22.02-.09.04-.18.06-.27.02-.09.04-.18.07-.27.02-.08.04-.16.06-.24.04-.15.08-.29.13-.43.04-.11.07-.23.11-.34,0-.01,0-.02.01-.03.04-.12.08-.24.13-.35.01-.03.02-.06.03-.09.04-.1.08-.19.11-.29.09-.21.18-.41.27-.6.03-.07.07-.13.1-.2.17-.34.35-.66.53-.95.04-.06.07-.12.11-.17.4-.64.83-1.16,1.22-1.59.06-.06.11-.12.17-.18.04-.05.09-.09.13-.14l.1-.1c.65-.64,2.07-.97,2.12-1-4.33,1.58-8.02,4.28-9.77,7.02-.48.74-.88,1.49-1.21,2.21,0,0,0,0,0,0-.19.4-.1.88.2,1.2.29.3.59.59.92.85.36.29.75.55,1.17.79l.14.08Z"/>
            <path class="st8" d="M128.87,25c-4.33-1.58-8.02-4.28-9.77-7.02-.48-.74-.88-1.48-1.21-2.21,0,0,0,0,0,0-.18-.39-.11-.86.18-1.17.64-.69,1.39-1.27,2.26-1.74.14-.08.29-.16.44-.23.78-.38,1.65-.69,2.61-.92-.06.34-.1.67-.14.99-.07.6-.11,1.18-.12,1.73,0,.03,0,.05,0,.08-.1,7.27,5.61,10.41,5.76,10.51Z"/>
            <g>
              <path class="st3" d="M124.86,28.24l6.48-3.24-2.58-1.29c-3.46-1.73-5.69-5.26-5.66-9.12,0-.03,0-.06,0-.1,0-.02,0-.05,0-.08,0-.55.05-1.13.12-1.73.04-.32.08-.65.14-.99-.96.23-1.83.53-2.61.92-.15.07-.3.15-.44.23.02.31.05.63.09.95.09.71.21,1.46.4,2.23.65,2.75,2.03,5.72,4.8,7.7l2,1.27-2.75,3.24Z"/>
              <path class="st1" d="M131.35,25l-2.58,1.29c-3.46,1.73-5.69,5.26-5.66,9.12,0,.03,0,.06,0,.1,0,.02,0,.05,0,.08,0,.55.05,1.13.12,1.73.04.32.08.65.14.99-.96-.23-1.83-.53-2.61-.92-.15-.07-.3-.15-.44-.23.02-.31.05-.63.09-.95.09-.71.21-1.46.4-2.23.65-2.75,2.03-5.72,4.8-7.7l2-1.27h3.73Z"/>
            </g>
          </g>
          <g>
            <polygon class="st4" points="123.82 25.02 115.34 25.06 113.35 19.66 123.82 25.02"/>
            <polygon class="st6" points="123.82 25.02 115.34 25.06 113.35 30.37 123.82 25.02"/>
          </g>
        </g>
      </g>
    </g>
  </g>
</svg>