<?xml version="1.0" encoding="UTF-8"?>
<svg xmlns="http://www.w3.org/2000/svg" version="1.1" xmlns:xlink="http://www.w3.org/1999/xlink" viewBox="0 0 150 50">
  <!-- Generator: Adobe Illustrator 30.1.0, SVG Export Plug-In . SVG Version: 2.1.1 Build 136)  -->
  <defs>
    <style>
      .st0 {
        fill: url(#linear-gradient2);
      }

      .st1 {
        fill: url(#linear-gradient10);
      }

      .st2 {
        fill: #22892c;
        font-family: SNPro-ExtraBoldItalic, 'SN Pro';
        font-size: 21.6px;
        font-style: italic;
        font-weight: 700;
      }

      .st3 {
        fill: url(#linear-gradient1);
      }

      .st4 {
        fill: url(#linear-gradient9);
      }

      .st5 {
        fill: url(#linear-gradient11);
      }

      .st6 {
        isolation: isolate;
      }

      .st7 {
        fill: url(#linear-gradient12);
      }

      .st8 {
        fill: url(#linear-gradient4);
      }

      .st9 {
        fill: url(#linear-gradient8);
      }

      .st9, .st10 {
        mix-blend-mode: multiply;
      }

      .st11 {
        fill: url(#linear-gradient5);
      }

      .st10 {
        fill: url(#linear-gradient7);
      }

      .st12 {
        fill: url(#linear-gradient3);
      }

      .st13 {
        fill: url(#linear-gradient6);
      }

      .st14 {
        fill: url(#linear-gradient);
      }
    </style>
    <linearGradient id="linear-gradient" x1="144.98" y1="6.12" x2="128.48" y2="26.18" gradientUnits="userSpaceOnUse">
      <stop offset="0" stop-color="#6eff3f"/>
      <stop offset="1" stop-color="#007f08"/>
    </linearGradient>
    <linearGradient id="linear-gradient1" x1="131.68" y1="30.8" x2="126.77" y2="38.4" gradientUnits="userSpaceOnUse">
      <stop offset="0" stop-color="#fff"/>
      <stop offset="1" stop-color="#fff" stop-opacity="0"/>
    </linearGradient>
    <linearGradient id="linear-gradient2" x1="142.03" y1="9.69" x2="133.35" y2="20.27" xlink:href="#linear-gradient1"/>
    <linearGradient id="linear-gradient3" x1="134.9" y1="16.24" x2="123.38" y2="33.26" gradientUnits="userSpaceOnUse">
      <stop offset="0" stop-color="#55df00"/>
      <stop offset="1" stop-color="#009f0e"/>
    </linearGradient>
    <linearGradient id="linear-gradient4" x1="122.52" y1="36.17" x2="132.59" y2="18.72" xlink:href="#linear-gradient3"/>
    <linearGradient id="linear-gradient5" x1="117.79" y1="31.65" x2="128.87" y2="31.65" gradientUnits="userSpaceOnUse">
      <stop offset="0" stop-color="#00bef5"/>
      <stop offset="1" stop-color="#007dc6"/>
    </linearGradient>
    <linearGradient id="linear-gradient6" x1="117.78" y1="18.35" y2="18.35" xlink:href="#linear-gradient5"/>
    <linearGradient id="linear-gradient7" x1="123.19" y1="26.64" x2="123.68" y2="38.03" gradientUnits="userSpaceOnUse">
      <stop offset="0" stop-color="#003cb1"/>
      <stop offset="1" stop-color="#fff" stop-opacity="0"/>
    </linearGradient>
    <linearGradient id="linear-gradient8" x1="122.48" y1="23.69" x2="124.86" y2="13.61" xlink:href="#linear-gradient7"/>
    <linearGradient id="linear-gradient9" x1="125.81" y1="19.08" x2="126.87" y2="11.86" xlink:href="#linear-gradient5"/>
    <linearGradient id="linear-gradient10" x1="127.17" y1="34.62" x2="124.64" y2="27.91" xlink:href="#linear-gradient5"/>
    <linearGradient id="linear-gradient11" x1="38.06" y1="-29.51" x2="38.45" y2="-33.02" gradientTransform="translate(70.83 66.78) scale(1.25 1.43)" xlink:href="#linear-gradient5"/>
    <linearGradient id="linear-gradient12" x1="38.39" y1="83.78" x2="37.5" y2="86.78" gradientTransform="translate(70.84 147.97) scale(1.25 -1.43)" xlink:href="#linear-gradient5"/>
  </defs>
  <g class="st6">
    <g id="Layer_1">
      <g>
        <text class="st2" transform="translate(7.24 31.55)"><tspan x="0" y="0">EmpreGol</tspan></text>
        <g>
          <g>
            <path class="st14" d="M128.9,11.14c-1.11,0-2.14.05-3.1.15-.86.09-1.67.23-2.42.41-.96.23-1.83.53-2.61.92l2.35,1.8.06.05c.66-.32,1.37-.58,2.11-.77,1.11-.29,2.32-.44,3.61-.44,7.14,0,11.75,4.61,11.75,11.75,0,.94-.08,1.84-.24,2.7-1.03,5.58-5.32,9.05-11.51,9.05-1.27,0-2.46-.15-3.56-.43-.79-.2-1.54-.47-2.23-.81-.18-.09-.36-.18-.53-.27-.37-.21-.72-.43-1.06-.68l-1.18,2.2h0s-.17.33-.17.33l.14.08c.64.35,1.34.64,2.1.88.31.1.62.18.95.26h0c.74.18,1.54.31,2.4.41.97.11,2.01.16,3.13.16,9.17,0,13.26-3.44,13.8-11.83.04-.65.06-1.33.06-2.03,0-9.87-3.99-13.86-13.86-13.86Z"/>
            <g>
              <path class="st3" d="M128.9,36.75c-1.27,0-2.46-.15-3.56-.43-.79-.2-1.54-.47-2.23-.81-.18-.09-.36-.18-.53-.27-.37-.21-.72-.43-1.06-.68l-.38.71c.3.22.62.42.94.6.17.1.35.19.53.27.69.34,1.44.61,2.23.81,1.1.28,2.29.43,3.56.43,4.26,0,7.62-1.64,9.64-4.49-2.05,2.45-5.21,3.85-9.15,3.85Z"/>
              <path class="st0" d="M128.9,11.14c-1.11,0-2.14.05-3.1.15-.86.09-1.67.23-2.42.41-.96.23-1.83.53-2.61.92l.35.27c.55-.21,1.13-.4,1.76-.55.75-.18,1.56-.32,2.42-.41.96-.1,2-.15,3.1-.15,9.87,0,13.86,3.99,13.86,13.86,0,.71-.02,1.39-.06,2.03-.2,3.14-.9,5.59-2.18,7.42,1.59-1.89,2.45-4.54,2.68-8.06.04-.65.06-1.33.06-2.03,0-9.87-3.99-13.86-13.86-13.86Z"/>
            </g>
            <path class="st12" d="M128.9,15.52c-1.37.03-2.69.35-3.89.91-1.35.63-2.53,1.56-3.46,2.71l1.02,1.26,1.04,1.29c.52-.82,1.23-1.52,2.06-2.03.95-.58,2.05-.92,3.23-.92,3.41,0,6.27,2.86,6.27,6.26,0,1-.24,1.94-.67,2.79-1.04,2.05-3.18,3.48-5.59,3.48-2.28,0-4.31-1.28-5.4-3.15l-1.18,1.11-1.17,1.1c1.73,2.45,4.6,4.09,7.76,4.15,4.13.08,7.63-2.61,8.93-6.3.35-1,.54-2.07.54-3.18,0-5.21-4.22-9.57-9.47-9.47Z"/>
            <path class="st8" d="M128.9,17.12c-1.14.02-2.24.29-3.23.76-1.23.58-2.3,1.45-3.1,2.53l1.04,1.29c.52-.82,1.23-1.52,2.06-2.03.95-.58,2.05-.92,3.23-.92,3.41,0,6.27,2.86,6.27,6.26,0,1-.24,1.94-.67,2.79-1.04,2.05-3.18,3.48-5.59,3.48-2.28,0-4.31-1.28-5.4-3.15l-1.18,1.11c1.42,2.15,3.88,3.6,6.59,3.65,3.44.07,6.35-2.17,7.43-5.24.29-.83.45-1.72.45-2.64,0-4.33-3.51-7.96-7.88-7.88Z"/>
            <path class="st11" d="M120.32,37.16c.64.35,1.34.64,2.1.88.31.1.62.18.95.26-.02-.13-.04-.27-.06-.4-.01-.06-.02-.13-.03-.19-.02-.13-.04-.27-.05-.4-.02-.18-.04-.35-.05-.53-.01-.16-.03-.32-.04-.48,0-.14-.02-.28-.02-.41,0-.11,0-.21,0-.32,0-.02,0-.05,0-.07,0-.21,0-.42,0-.63,0-.07,0-.14,0-.21,0-.13,0-.25.02-.38,0-.06,0-.11.01-.17,0-.1.02-.2.02-.29.02-.22.04-.43.07-.63.01-.08.02-.16.04-.23.02-.13.04-.26.07-.38,0-.04.01-.07.02-.11.01-.07.03-.15.04-.22.02-.09.04-.18.06-.27.02-.09.04-.18.07-.27.02-.08.04-.16.06-.24.04-.15.08-.29.13-.43.04-.11.07-.23.11-.34,0-.01,0-.02.01-.03.04-.12.08-.24.13-.35.01-.03.02-.06.03-.09.04-.1.08-.19.11-.29.09-.21.18-.41.27-.6.03-.07.07-.13.1-.2.17-.34.35-.66.53-.95.04-.06.07-.12.11-.17.4-.64.83-1.16,1.22-1.59.06-.06.11-.12.17-.18.04-.05.09-.09.13-.14l.1-.1c.65-.64,2.07-.97,2.12-1-4.33,1.58-8.02,4.28-9.77,7.02-.48.74-.88,1.49-1.21,2.21,0,0,0,0,0,0-.19.4-.1.88.2,1.2.29.3.59.59.92.85.36.29.75.55,1.17.79l.14.08Z"/>
            <path class="st13" d="M128.87,25c-4.33-1.58-8.02-4.28-9.77-7.02-.48-.74-.88-1.48-1.21-2.21,0,0,0,0,0,0-.18-.39-.11-.86.18-1.17.64-.69,1.39-1.27,2.26-1.74.14-.08.29-.16.44-.23.78-.38,1.65-.69,2.61-.92-.06.34-.1.67-.14.99-.07.6-.11,1.18-.12,1.73,0,.03,0,.05,0,.08-.1,7.27,5.61,10.41,5.76,10.51Z"/>
            <path class="st10" d="M120.32,37.16c.64.35,1.34.64,2.1.88.31.1.62.18.95.26-.02-.13-.04-.27-.06-.4-.01-.06-.02-.13-.03-.19-.02-.13-.04-.27-.05-.4-.02-.18-.04-.35-.05-.53-.01-.16-.03-.32-.04-.48,0-.14-.02-.28-.02-.41,0-.11,0-.21,0-.32,0-.02,0-.05,0-.07,0-.21,0-.42,0-.63,0-.07,0-.14,0-.21,0-.13,0-.25.02-.38,0-.06,0-.11.01-.17,0-.1.02-.2.02-.29.02-.22.04-.43.07-.63.01-.08.02-.16.04-.23.02-.13.04-.26.07-.38,0-.04.01-.07.02-.11.01-.07.03-.15.04-.22.02-.09.04-.18.06-.27.02-.09.04-.18.07-.27.02-.08.04-.16.06-.24.04-.15.08-.29.13-.43.04-.11.07-.23.11-.34,0-.01,0-.02.01-.03.04-.12.08-.24.13-.35.01-.03.02-.06.03-.09.04-.1.08-.19.11-.29.09-.21.18-.41.27-.6.03-.07.07-.13.1-.2.17-.34.35-.66.53-.95.04-.06.07-.12.11-.17.4-.64.83-1.16,1.22-1.59.06-.06.11-.12.17-.18.04-.05.09-.09.13-.14l.1-.1c.65-.64,2.07-.97,2.12-1-4.33,1.58-8.02,4.28-9.77,7.02-.48.74-.88,1.49-1.21,2.21,0,0,0,0,0,0-.19.4-.1.88.2,1.2.29.3.59.59.92.85.36.29.75.55,1.17.79l.14.08Z"/>
            <path class="st9" d="M128.87,25c-4.33-1.58-8.02-4.28-9.77-7.02-.48-.74-.88-1.48-1.21-2.21,0,0,0,0,0,0-.18-.39-.11-.86.18-1.17.64-.69,1.39-1.27,2.26-1.74.14-.08.29-.16.44-.23.78-.38,1.65-.69,2.61-.92-.06.34-.1.67-.14.99-.07.6-.11,1.18-.12,1.73,0,.03,0,.05,0,.08-.1,7.27,5.61,10.41,5.76,10.51Z"/>
            <g>
              <path class="st4" d="M124.86,28.24l6.48-3.24-2.58-1.29c-3.46-1.73-5.69-5.26-5.66-9.12,0-.03,0-.06,0-.1,0-.02,0-.05,0-.08,0-.55.05-1.13.12-1.73.04-.32.08-.65.14-.99-.96.23-1.83.53-2.61.92-.15.07-.3.15-.44.23.02.31.05.63.09.95.09.71.21,1.46.4,2.23.65,2.75,2.03,5.72,4.8,7.7l2,1.27-2.75,3.24Z"/>
              <path class="st1" d="M131.35,25l-2.58,1.29c-3.46,1.73-5.69,5.26-5.66,9.12,0,.03,0,.06,0,.1,0,.02,0,.05,0,.08,0,.55.05,1.13.12,1.73.04.32.08.65.14.99-.96-.23-1.83-.53-2.61-.92-.15-.07-.3-.15-.44-.23.02-.31.05-.63.09-.95.09-.71.21-1.46.4-2.23.65-2.75,2.03-5.72,4.8-7.7l2-1.27h3.73Z"/>
            </g>
          </g>
          <g>
            <polygon class="st5" points="123.82 25.02 115.34 25.06 113.35 19.66 123.82 25.02"/>
            <polygon class="st7" points="123.82 25.02 115.34 25.06 113.35 30.37 123.82 25.02"/>
          </g>
        </g>
      </g>
    </g>
  </g>
</svg>